<?xml version="1.0" standalone="no"?><!DOCTYPE svg PUBLIC "-//W3C//DTD SVG 1.1//EN" "http://www.w3.org/Graphics/SVG/1.1/DTD/svg11.dtd"><svg t="1681896327393" class="icon" viewBox="0 0 1170 1024" version="1.1" xmlns="http://www.w3.org/2000/svg" p-id="8547" xmlns:xlink="http://www.w3.org/1999/xlink" width="228.515625" height="200"><path d="M44.909714 704.658286a81.92 81.92 0 0 0 82.870857 77.458285h425.837715v117.906286H390.656a31.085714 31.085714 0 0 0 0 62.171429h388.973714a31.085714 31.085714 0 0 0 0-62.171429H616.667429v-117.906286h425.837714c43.885714 0.512 80.457143-33.645714 82.870857-77.458285v-71.094857H44.909714v71.094857zM1042.578286 61.805714H127.707429A81.92 81.92 0 0 0 44.909714 141.970286v422.253714h1080.466286V141.970286A81.92 81.92 0 0 0 1042.505143 61.805714z" fill="#1890FF" p-id="8548"></path></svg>